<?xml version="1.0" encoding="utf-8"?>
<!-- Generator: Adobe Illustrator 26.1.0, SVG Export Plug-In . SVG Version: 6.00 Build 0)  -->
<svg version="1.1" id="Слой_1" xmlns="http://www.w3.org/2000/svg" xmlns:xlink="http://www.w3.org/1999/xlink" x="0px" y="0px"
	 viewBox="0 0 120 120" style="enable-background:new 0 0 120 120;" xml:space="preserve">
<style type="text/css">
	.st0{fill:#010223;}
	.st1{fill:#883399;}
</style>
<rect class="st0" width="120" height="120"/>
<g>
	<path class="st1" d="M31.1,49.4c0,5.7-4.4,9.3-11.2,9.3h-3.6v6.1H8V40.1h11.9C26.7,40.1,31.1,43.7,31.1,49.4z M22.7,49.4
		c0-1.8-1.1-2.9-3.4-2.9h-3v5.8h3C21.6,52.3,22.7,51.2,22.7,49.4z"/>
	<path class="st1" d="M44.4,58.5h-2.3v6.2h-8.3V40.1h11.9c6.9,0,11.2,3.6,11.2,9.3c0,3.6-1.7,6.2-4.6,7.7l5.2,7.6h-8.9L44.4,58.5z
		 M45.2,46.5h-3v5.8h3c2.3,0,3.4-1.1,3.4-2.9C48.5,47.6,47.4,46.5,45.2,46.5z"/>
	<path class="st1" d="M59.1,52.4c0-7.5,5.9-12.9,13.9-12.9s13.9,5.4,13.9,12.9c0,7.5-5.9,12.9-13.9,12.9S59.1,59.9,59.1,52.4z
		 M78.5,52.4c0-3.8-2.5-6.2-5.5-6.2s-5.5,2.3-5.5,6.2c0,3.8,2.5,6.2,5.5,6.2S78.5,56.2,78.5,52.4z"/>
	<path class="st1" d="M89.9,40.1h12.1c8.2,0,13.9,4.7,13.9,12.3s-5.7,12.3-13.9,12.3H89.9V40.1z M101.7,58.3c3.5,0,5.9-2.1,5.9-5.8
		c0-3.8-2.4-5.8-5.9-5.8h-3.5v11.7H101.7z"/>
</g>
</svg>
